<svg width="168.6" height="55.77207860834946" viewBox="0 0 370 122.39424131132444" class="css-1j8o68f"><defs id="SvgjsDefs7739"></defs><g id="SvgjsG7740" featurekey="nRdZyp-0" transform="matrix(1.219487119846485,0,0,1.219487119846485,-10.973416293539572,0.020942024771761325)" fill="#ffffff"><title xmlns="http://www.w3.org/2000/svg">7. amazon</title><path xmlns="http://www.w3.org/2000/svg" d="M43.17,34.1l-.46.1a38.72,38.72,0,0,0-5.34,1.43,19.56,19.56,0,0,0-8.88,6.75c-4.3,5.75-5.21,11.92-2.7,18.34a15.28,15.28,0,0,0,7.62,8.59,19.11,19.11,0,0,0,8.37,1.94,20.55,20.55,0,0,0,3.94-.39,22,22,0,0,0,9.65-4.1c1-.76,1.88-1.58,2.77-2.38l.42-.38a46.3,46.3,0,0,0,5,5.8,3.1,3.1,0,0,0,4.16.2l8-6.71a2.25,2.25,0,0,0,.68-1,3.15,3.15,0,0,0-.44-2.78c-.22-.31-.43-.63-.65-1-.39-.59-.8-1.2-1.24-1.78a9.92,9.92,0,0,1-1.8-4.42A12.78,12.78,0,0,1,72,49.93c0-7,0-14.59,0-22.26a18.41,18.41,0,0,0-.83-6,15,15,0,0,0-5.51-7.76A27.43,27.43,0,0,0,36.8,12.39,19.62,19.62,0,0,0,26.59,26a2.9,2.9,0,0,0,2.71,3.6l5.55.49c1.09.1,2.19.2,3.28.28a3,3,0,0,0,3.29-2.11,7.52,7.52,0,0,1,6.64-6,7.15,7.15,0,0,1,4.4.48,5.35,5.35,0,0,1,3.3,5.1v4.84A63.14,63.14,0,0,0,43.17,34.1ZM53.36,21a8.18,8.18,0,0,0-3.72-.83,12.6,12.6,0,0,0-1.88.15,9.45,9.45,0,0,0-8.27,7.48,1.1,1.1,0,0,1-1.2.63L35,28.1l-5.55-.49a1.09,1.09,0,0,1-.79-.38,1,1,0,0,1-.13-.82,17.47,17.47,0,0,1,9.21-12.27,25.42,25.42,0,0,1,26.76,1.39,12.92,12.92,0,0,1,4.76,6.77A16.11,16.11,0,0,1,70,27.66c0,7.68,0,15.24,0,22.27a14.94,14.94,0,0,0,.25,2.74A11.86,11.86,0,0,0,72.44,58c.41.53.78,1.09,1.17,1.67l.67,1a1.14,1.14,0,0,1,.16,1.06s0,.07-.06.09q-4,3.36-7.95,6.7A1.08,1.08,0,0,1,65,68.37a43.1,43.1,0,0,1-5.21-6.14L59.54,62l-.83.57.79-.62a1,1,0,0,0-1.45-.14L56.8,62.89c-.9.81-1.76,1.58-2.66,2.29a20.21,20.21,0,0,1-8.81,3.72,17,17,0,0,1-11-1.39A13.13,13.13,0,0,1,27.65,60c-2.23-5.73-1.41-11.25,2.44-16.41a17.58,17.58,0,0,1,8-6.08,37.43,37.43,0,0,1,5.07-1.35l.45-.1a61.29,61.29,0,0,1,12.77-1.38l.32,0h.13a1,1,0,0,0,.92-.94v-.17c0-.15,0-.29,0-.44V27.83A7.36,7.36,0,0,0,53.36,21Z"></path><path xmlns="http://www.w3.org/2000/svg" d="M57.72,44c0-.63,0-1.26,0-1.88v-.59a1,1,0,0,0-.92-1h-.14a2.43,2.43,0,0,0-.36,0l-1.72.09c-1.5.08-3,.16-4.51.26a11,11,0,0,0-5.18,1.7,10.77,10.77,0,0,0-4.77,5.62,11.88,11.88,0,0,0-.22,6.75,7,7,0,0,0,3.54,5,10,10,0,0,0,2.51.95,8.75,8.75,0,0,0,1.8.19,6.72,6.72,0,0,0,4.49-1.65,15.29,15.29,0,0,0,3.41-3.9,13.3,13.3,0,0,0,2.08-7.28C57.7,46.8,57.71,45.38,57.72,44ZM53.94,54.45a13.6,13.6,0,0,1-3,3.4,5.08,5.08,0,0,1-4.6,1,8.4,8.4,0,0,1-2-.77,5,5,0,0,1-2.5-3.65A10,10,0,0,1,42,48.82,8.75,8.75,0,0,1,46,44.25a9,9,0,0,1,4.25-1.4c1.49-.1,3-.17,4.48-.25l1-.05c0,.48,0,1,0,1.44,0,1.39,0,2.83,0,4.26A11.18,11.18,0,0,1,53.94,54.45Z"></path><path xmlns="http://www.w3.org/2000/svg" d="M76.32,75.24c-.3.11-.59.25-.88.39l-.48.22-2.23,1c-1.25.54-2.49,1.07-3.73,1.62a45.3,45.3,0,0,1-6,2l-.62.18L60,81.3c-.43.11-.86.2-1.29.29l-.63.13-.93.22c-.69.16-1.35.31-2,.41s-1.41.13-2.15.17l-.89,0-.54,0c-.53,0-1.06.07-1.58.08-1.56,0-3.32,0-5-.05-.84,0-1.7-.1-2.54-.18l-1.3-.12a14.5,14.5,0,0,1-1.54-.17c-1-.17-2-.37-3-.56L35,81.29a26.9,26.9,0,0,1-4.88-1.4c-1.35-.53-2.7-1.09-4-1.65C25,77.77,24,77.34,23,76.86c-1.24-.6-2.45-1.24-3.47-1.79s-2-1.09-2.94-1.66c-.64-.37-1.28-.76-1.9-1.16-1-.66-2-1.33-2.95-2a1.66,1.66,0,0,0-2.29.25,1.69,1.69,0,0,0,0,2.3c.88,1,1.68,1.85,2.44,2.64.27.28.57.55.87.82l.66.61a41.88,41.88,0,0,0,5.4,4.49C20,82.2,21,82.87,22,83.45c1.4.86,2.77,1.68,4.19,2.41,1.19.6,2.43,1.12,3.62,1.62l.65.28a29,29,0,0,0,2.72,1l1.21.38a20.39,20.39,0,0,0,4.29,1c.8.07,1.59.19,2.38.31s1.66.26,2.51.34a22.06,22.06,0,0,0,2.29,0h.51a1.09,1.09,0,0,0,.44.1h.06l1.57-.08c1.21-.06,2.46-.12,3.7-.24A44.23,44.23,0,0,0,56.51,90c1.54-.32,3-.68,4.41-1.08.92-.26,1.81-.61,2.68-.94l1-.36c.78-.3,1.58-.6,2.36-1,1.23-.61,2.41-1.28,3.49-1.92s2-1.25,3-1.88a24,24,0,0,0,2.18-1.7c1-.87,2-1.79,2.89-2.64A2,2,0,0,0,78.69,76,2.22,2.22,0,0,0,76.32,75.24Zm-2.07,4.33a20.31,20.31,0,0,1-2,1.56c-.87.61-1.8,1.2-2.84,1.8S67.21,84.21,66,84.79a21.57,21.57,0,0,1-2.18.9l-1,.38c-.86.33-1.67.64-2.51.88-1.34.38-2.78.73-4.27,1a41.67,41.67,0,0,1-4.17.7c-1.18.12-2.4.18-3.58.23L47.21,89a.9.9,0,0,0-.4-.09l-1,0a19.58,19.58,0,0,1-2,0c-.8-.08-1.62-.2-2.41-.32s-1.65-.25-2.48-.33a19.13,19.13,0,0,1-3.88-1l-1.24-.4a26.15,26.15,0,0,1-2.52-1l-.65-.28c-1.17-.49-2.37-1-3.49-1.57-1.36-.69-2.7-1.49-4.06-2.32-.93-.57-1.9-1.21-3.05-2a39.43,39.43,0,0,1-5.15-4.26c-.24-.24-.49-.46-.73-.69s-.53-.47-.78-.72l-.74-.78,1,.65c.66.43,1.32.83,2,1.22,1,.58,2,1.15,3,1.69s2.28,1.22,3.55,1.83c1,.5,2.06.94,3.2,1.42,1.35.57,2.71,1.13,4.07,1.67a29.48,29.48,0,0,0,5.24,1.5l1.62.32c1,.19,2,.39,3,.56.59.1,1.17.15,1.73.2l1.27.11c.87.08,1.77.16,2.67.19,1.76.06,3.55.05,5.12.05.57,0,1.14-.05,1.71-.09l.52,0,.87,0c.75,0,1.54-.07,2.32-.18s1.48-.28,2.19-.45l.9-.21.6-.12c.47-.1.93-.2,1.39-.32.8-.2,1.6-.43,2.4-.66l.63-.17a48.85,48.85,0,0,0,6.25-2.14l3.72-1.61,2.23-1,.56-.26.59-.28C76.06,77.94,75.17,78.78,74.25,79.57Z"></path><path xmlns="http://www.w3.org/2000/svg" d="M88,65.91a20,20,0,0,0-3.28-.27,25.08,25.08,0,0,0-5.43.63A21.39,21.39,0,0,0,72.84,69a1.7,1.7,0,0,0-.66.89.67.67,0,0,1-.06.12,1,1,0,0,0,.64,1.45l.14,0a1.94,1.94,0,0,0,.93.14q.51-.08,1-.18A9.46,9.46,0,0,1,76,71.25c1.09-.1,2.18-.16,3.32-.23l1.39-.08.91.08,2.37.2a1.34,1.34,0,0,1,.92.64,1.14,1.14,0,0,1,.2,1,14.2,14.2,0,0,0-.43,1.57c-.09.37-.18.73-.29,1.09-.52,1.68-1,3.24-1.55,4.75-.13.4-.3.78-.46,1.16s-.29.68-.42,1a1.84,1.84,0,0,0,0,1,1,1,0,0,0,1,.93h.19a1.83,1.83,0,0,0,.82-.15,3.11,3.11,0,0,0,1-.72l.75-.86A26.27,26.27,0,0,0,87.74,80a24.08,24.08,0,0,0,2.08-4A14.18,14.18,0,0,0,90.61,73,22.83,22.83,0,0,0,91,69.44,3.55,3.55,0,0,0,88,65.91Zm.66,6.72A12.58,12.58,0,0,1,88,75.25a21.88,21.88,0,0,1-1.9,3.62,18.16,18.16,0,0,1-1.23,1.58c.47-1.4.94-2.83,1.42-4.37.12-.4.22-.81.31-1.22s.23-.93.38-1.36a3.13,3.13,0,0,0-.41-2.72,3.3,3.3,0,0,0-2.44-1.56L81.75,69l-1-.08h-.15L79.16,69l-2.38.14a18.28,18.28,0,0,1,2.94-1,23.06,23.06,0,0,1,5-.58,16.73,16.73,0,0,1,2.92.24A1.56,1.56,0,0,1,89,69.41,22.5,22.5,0,0,1,88.64,72.63Z"></path></g><g id="SvgjsG7741" featurekey="Q4qmbg-0" transform="matrix(5.878088326134164,0,0,5.878088326134164,117.5312045567293,-30.095811557113095)" fill="#ffffff"><path d="M4.48 15.8 c0 0.72 -0.02 1.92 1.08 1.92 c0.54 0 0.88 -0.22 1.26 -0.5 l0 2.44 c-0.46 0.26 -1.02 0.5 -1.62 0.5 c-2.54 0 -3.68 -1.08 -3.68 -4.36 l0 -3.24 l-1.1 0 l0 -2.44 l1.1 0 l0 -2.84 l2.96 0 l0 2.84 l2.34 0 l0 2.44 l-2.34 0 l0 3.24 z M13.327708333333334 12.42 c-1.22 0 -2.24 1.08 -2.24 2.66 c0 1.56 1.02 2.64 2.24 2.64 c1.24 0 2.26 -1.08 2.26 -2.64 c0 -1.58 -1.02 -2.66 -2.26 -2.66 z M13.327708333333334 9.98 c2.9 0 5.22 2.18 5.22 5.1 s-2.32 5.08 -5.22 5.08 c-2.88 0 -5.2 -2.16 -5.2 -5.08 s2.32 -5.1 5.2 -5.1 z M24.415416666666665 12.42 c-1.22 0 -2.24 1.08 -2.24 2.66 c0 1.56 1.02 2.64 2.24 2.64 c1.24 0 2.26 -1.08 2.26 -2.64 c0 -1.58 -1.02 -2.66 -2.26 -2.66 z M24.415416666666665 9.98 c2.9 0 5.22 2.18 5.22 5.1 s-2.32 5.08 -5.22 5.08 c-2.88 0 -5.2 -2.16 -5.2 -5.08 s2.32 -5.1 5.2 -5.1 z M33.663124999999994 5.119999999999999 l0 14.88 l-2.98 0 l0 -14.88 l2.98 0 z M37.95083333333333 13.24 c0 1.18 5 0.62 5 3.74 c0 2.04 -1.8 3.18 -4.04 3.18 c-1.42 0 -2.84 -0.7 -3.96 -1.82 l1.94 -1.94 c0.56 0.68 1.36 1.2 2.02 1.26 s1.22 -0.22 1.32 -0.52 c0.24 -0.76 -1.14 -0.8 -1.56 -0.92 c-1.58 -0.48 -3.42 -1.14 -3.42 -3.1 c0 -2.34 2.44 -3.14 3.66 -3.14 c1.4 0 2.82 0.64 3.96 1.8 l-1.92 1.92 c-0.52 -0.68 -1.42 -1.22 -2.04 -1.22 c-0.32 0 -0.96 0.12 -0.96 0.76 z"></path></g><g id="SvgjsG7742" featurekey="sloganFeature-0" transform="matrix(0.9520001539795171,0,0,0.9520001539795171,119.7334402110972,102.99247942612125)" fill="#ffffff"><path d="M9.54 15.82 l-5.76 0 l-1.5 4.18 l-2 0 l5.4 -14.36 l2.2 0 l5.2 14.36 l-2.12 0 z M4.38 14.1 l4.46 0 l-2.12 -6.32 l-0.04 0 z M31.892000000000003 20 l-1.88 0 l0 -8.48 c0 -0.42 0.04 -2.24 0.04 -3.58 l-0.04 0 l-4.04 12.06 l-1.92 0 l-4.04 -12.04 l-0.04 0 c0 1.32 0.04 3.14 0.04 3.56 l0 8.48 l-1.88 0 l0 -14.36 l2.78 0 l4.1 12.14 l0.04 0 l4.08 -12.14 l2.76 0 l0 14.36 z M46.204 15.82 l-5.76 0 l-1.5 4.18 l-2 0 l5.4 -14.36 l2.2 0 l5.2 14.36 l-2.12 0 z M41.044000000000004 14.1 l4.46 0 l-2.12 -6.32 l-0.04 0 z M65.096 18.28 l0 1.72 l-11.3 0 l0 -1.62 l8.8 -11.02 l-8.14 0 l0 -1.72 l10.64 0 l0 1.68 l-8.84 10.96 l8.84 0 z M81.668 12.82 c0 -3.38 -1.88 -5.84 -5 -5.84 s-5 2.46 -5 5.84 s1.88 5.84 5 5.84 s5 -2.46 5 -5.84 z M83.668 12.82 c0 3.1 -1.64 7.56 -7 7.56 s-7 -4.46 -7 -7.56 s1.64 -7.56 7 -7.56 s7 4.46 7 7.56 z M98.82 17.240000000000002 l0 -11.6 l1.88 0 l0 14.36 l-2.18 0 l-7.3 -11.6 l-0.04 0 l0 11.6 l-1.88 0 l0 -14.36 l2.3 0 l7.18 11.6 l0.04 0 z M125.42399999999999 11.58 l0 -5.94 l1.94 0 l0 14.36 l-1.94 0 l0 -6.7 l-7.5 0 l0 6.7 l-1.94 0 l0 -14.36 l1.94 0 l0 5.94 l7.5 0 z M144.53599999999997 18.28 l0 1.72 l-10.6 0 l0 -14.36 l10.46 0 l0 1.72 l-8.52 0 l0 4.4 l7.86 0 l0 1.72 l-7.86 0 l0 4.8 l8.66 0 z M152.34799999999998 5.640000000000001 l0 12.64 l7.28 0 l0 1.72 l-9.22 0 l0 -14.36 l1.94 0 z M166.99999999999997 7.300000000000001 l0 4.98 l3.86 0 c1.74 0 2.92 -0.64 2.92 -2.58 c0 -1.82 -1.24 -2.4 -2.84 -2.4 l-3.94 0 z M166.99999999999997 13.940000000000001 l0 6.06 l-1.94 0 l0 -14.36 l6.46 0 c2.66 0 4.26 1.72 4.26 4.04 c0 2 -1.14 4.26 -4.26 4.26 l-4.52 0 z M192.33199999999997 18.28 l0 1.72 l-10.6 0 l0 -14.36 l10.46 0 l0 1.72 l-8.52 0 l0 4.4 l7.86 0 l0 1.72 l-7.86 0 l0 4.8 l8.66 0 z M200.38399999999996 13.84 l0 6.16 l-1.94 0 l0 -14.36 l6.64 0 c2.36 0 4.72 0.82 4.72 3.86 c0 2.12 -1.08 2.9 -2 3.44 c0.82 0.34 1.64 0.7 1.72 2.7 l0.12 2.6 c0.02 0.8 0.12 1.1 0.72 1.44 l0 0.32 l-2.38 0 c-0.28 -0.88 -0.34 -3.06 -0.34 -3.6 c0 -1.18 -0.24 -2.56 -2.56 -2.56 l-4.7 0 z M200.38399999999996 7.300000000000001 l0 4.88 l4.5 0 c1.42 0 2.92 -0.36 2.92 -2.48 c0 -2.22 -1.62 -2.4 -2.58 -2.4 l-4.84 0 z"></path></g></svg>
