<svg data-v-6805eed4="" version="1.0" xmlns="http://www.w3.org/2000/svg" xmlns:xlink="http://www.w3.org/1999/xlink" width="100%" height="100%" viewBox="0 0 340.000000 250.000000" preserveAspectRatio="xMidYMid meet" color-interpolation-filters="sRGB" style="margin: auto;"> <rect data-v-6805eed4="" x="0" y="0" width="100%" height="100%" fill="#ffffff" fill-opacity="0" class="background"></rect> <rect data-v-6805eed4="" x="0" y="0" width="100%" height="100%" fill="url(#watermark)" fill-opacity="1" class="watermarklayer"></rect> <g data-v-6805eed4="" fill="#FFFFFF" class="icon-text-wrapper icon-svg-group iconsvg" transform="translate(37.92999267578125,97.22710609436035)"><g class="iconsvg-imagesvg" transform="matrix(1,0,0,1,0,0)" opacity="1"><g><rect fill="#FFFFFF" fill-opacity="0" stroke-width="2" x="0" y="0" width="60" height="55.54578361214231" class="image-rect"></rect> <svg filter="url(#colors9740272678)" x="0" y="0" width="60" height="55.54578361214231" filtersec="colorsf3083961379" class="image-svg-svg primary" style="overflow: visible;"><svg xmlns:dc="http://purl.org/dc/elements/1.1/" xmlns:cc="http://creativecommons.org/ns#" xmlns:rdf="http://www.w3.org/1999/02/22-rdf-syntax-ns#" xmlns:svg="http://www.w3.org/2000/svg" xmlns="http://www.w3.org/2000/svg" xmlns:sodipodi="http://sodipodi.sourceforge.net/DTD/sodipodi-0.dtd" xmlns:inkscape="http://www.inkscape.org/namespaces/inkscape" version="1.1" x="0px" y="0px" viewBox="6.00412654876709 9.27001953125 87.99176025390625 81.4598388671875"><g transform="translate(0,-952.36218)"><path d="m 40.071817,961.63235 a 2.0002,2.0002 0 0 0 -0.53719,0.0684 l -4.46,1.2 a 2.0002,2.0002 0 0 0 -1.4125,2.44875 l 1.43906,5.3725 c -5.97181,2.39086 -11.34585,6.39873 -15.4025,11.81812 l -4.81437,-2.78 a 2.0002,2.0002 0 0 0 -2.73094,0.73 l -2.3099997,3.99 a 2.0002,2.0002 0 0 0 0.7306197,2.73407 l 4.815,2.78062 c -2.66069,6.21953 -3.43949,12.87949 -2.52874,19.24569 l -5.3737597,1.4397 a 2.0002,2.0002 0 0 0 -1.41374,2.4515 l 1.2,4.46 a 2.0002,2.0002 0 0 0 2.44906,1.4122 l 5.3718697,-1.439 c 2.39036,5.9724 6.39657,11.3524 11.81,15.404 l -2.77281,4.815 a 2.0002,2.0002 0 0 0 0.73125,2.7291 l 3.99,2.31 a 2.0002,2.0002 0 0 0 2.73406,-0.7306 l 2.78031,-4.8147 c 5.68035,2.4231 11.60322,3.1794 17.45313,2.605 a 2.0002,2.0002 0 1 0 -0.39094,-3.981 c -5.78283,0.5679 -11.4972,-0.2938 -17.00375,-2.9953 a 2.0002,2.0002 0 0 0 -2.61281,0.7957 l -2.68875,4.6562 -0.53031,-0.3072 2.68437,-4.6609 a 2.0002,2.0002 0 0 0 -0.61968,-2.6594 c -5.99731,-4.0202 -10.23719,-9.7847 -12.43063,-16.2144 a 2.0002,2.0002 0 0 0 -2.41063,-1.2862 l -5.2,1.3931 -0.16062,-0.5975 5.19594,-1.3919 a 2.0002,2.0002 0 0 0 1.445,-2.3172 c -1.30881,-6.6664 -0.52012,-13.77548 2.66281,-20.26376 a 2.0002,2.0002 0 0 0 -0.79531,-2.61282 l -4.65625,-2.68875 0.30593,-0.52812 4.66,2.69094 a 2.0002,2.0002 0 0 0 2.66094,-0.61782 c 4.03154,-6.00962 9.78588,-10.24832 16.215,-12.44156 a 2.0002,2.0002 0 0 0 1.28625,-2.41031 l -1.39312,-5.20031 0.59719,-0.16063 1.39187,5.19594 a 2.0002,2.0002 0 0 0 2.31719,1.445 c 6.66643,-1.30881 13.77444,-0.51975 20.26187,2.67219 a 2.0002,2.0002 0 0 0 2.615,-0.79438 l 2.69063,-4.65937 0.52625,0.30343 -2.68219,4.6575 a 2.0002,2.0002 0 0 0 0.61906,2.65907 c 5.09153,3.41631 8.68779,7.93289 11.09282,13.23531 a 2.0002,2.0002 0 1 0 3.64281,-1.65219 c -2.43116,-5.36003 -6.04263,-10.11336 -10.98125,-13.82094 l 2.77312,-4.815 a 2.0002,2.0002 0 0 0 -0.73437,-2.73093 l -3.99,-2.3 a 2.0002,2.0002 0 0 0 -2.73094,0.73281 l -2.77969,4.81344 c -6.22017,-2.66837 -12.88072,-3.44822 -19.24687,-2.5375 l -1.43938,-5.37344 a 2.0002,2.0002 0 0 0 -1.91437,-1.48219 z" fill-opacity="1" fill-rule="evenodd" stroke="none" marker="none" visibility="visible" display="inline" overflow="visible"></path><path d="m 48.983067,979.98516 c -1.01155,-0.008 -2.03473,0.0478 -3.065,0.17094 -5e-4,10e-5 -10e-4,3e-4 -0.0016,3e-4 -13.19327,1.56839 -22.65593,13.58843 -21.08843,26.7816 a 2.0002,2.0002 0 0 0 3e-4,0 c 1.57819,13.2024 13.59929,22.6562 26.79188,21.0887 a 2.0002,2.0002 0 1 0 -0.47219,-3.9722 c -11.047,1.3125 -21.02539,-6.533 -22.34781,-17.59 -1.31244,-11.04632 6.5441,-21.02541 17.59,-22.33779 a 2.0002,2.0002 0 0 0 0.0016,-3e-4 c 11.04567,-1.32148 21.02493,6.53458 22.34656,17.58159 a 2.0002,2.0002 0 1 0 3.97156,-0.475 c -1.45505,-12.16235 -11.78455,-21.1552 -23.72686,-21.24941 z" fill-opacity="1" fill-rule="evenodd" stroke="none" marker="none" visibility="visible" display="inline" overflow="visible"></path><path d="m 75.495877,1007.7525 a 2.0002,2.0002 0 0 0 -1.78125,2 l 0,1 c -1.9389,0.3819 -3.76128,1.156 -5.34375,2.2188 l -0.6875,-0.7188 a 2.0002,2.0002 0 0 0 -2.84375,0 l -1.21875,1.2188 a 2.0002,2.0002 0 0 0 0,2.8125 l 0.71875,0.7187 c -1.06266,1.5824 -1.83688,3.405 -2.21875,5.3438 l -1,0 a 2.0002,2.0002 0 0 0 -2,2 l 0,1.7187 a 2.0002,2.0002 0 0 0 2,2 l 1,0 c 0.38188,1.9358 1.15574,3.7287 2.21875,5.3125 l -0.71875,0.7188 a 2.0002,2.0002 0 0 0 0,2.8125 l 1.21875,1.2187 a 2.0002,2.0002 0 0 0 2.84375,0 l 0.6875,-0.7187 c 1.58139,1.0576 3.40542,1.8373 5.34375,2.2187 l 0,1 a 2.0002,2.0002 0 0 0 2,2 l 1.71875,0 a 2.0002,2.0002 0 0 0 2,-2 l 0,-1 c 1.93525,-0.3814 3.72976,-1.1608 5.3125,-2.2187 l 0.71875,0.7187 a 2.0002,2.0002 0 0 0 2.8125,0 l 1.218754,-1.2187 a 2.0002,2.0002 0 0 0 0,-2.8125 l -0.6875,-0.7188 c 1.05803,-1.5828 1.80605,-3.3771 2.1875,-5.3125 l 1,0 a 2.0002,2.0002 0 0 0 2,-2 l 0,-1.7187 a 2.0002,2.0002 0 0 0 -2,-2 l -1,0 c -0.38145,-1.9382 -1.12988,-3.7625 -2.1875,-5.3438 l 0.6875,-0.7187 a 2.0002,2.0002 0 0 0 0,-2.8125 l -1.218754,-1.2188 a 2.0002,2.0002 0 0 0 -2.8125,0 l -0.71875,0.7188 c -1.58382,-1.0631 -3.37667,-1.8369 -5.3125,-2.2188 l 0,-1 a 2.0002,2.0002 0 0 0 -2,-2 l -1.71875,0 a 2.0002,2.0002 0 0 0 -0.21875,0 z m 1.0625,6.5625 a 2.0002,2.0002 0 0 0 0.71875,0.1875 c 2.41234,0.1603 4.63442,1.1262 6.34375,2.625 a 2.0002,2.0002 0 0 0 0.625,0.375 2.0002,2.0002 0 0 0 0.40625,0.6563 c 1.49363,1.713 2.43333,3.8892 2.59375,6.3125 a 2.0002,2.0002 0 0 0 0.1875,0.7187 2.0002,2.0002 0 0 0 -0.1875,0.7188 c -0.16026,2.4123 -1.10225,4.6331 -2.59375,6.3437 a 2.0002,2.0002 0 0 0 -0.40625,0.625 2.0002,2.0002 0 0 0 -0.625,0.375 c -1.71059,1.4915 -3.93141,2.4648 -6.34375,2.625 a 2.0002,2.0002 0 0 0 -0.71875,0.1875 2.0002,2.0002 0 0 0 -0.71875,-0.1875 c -2.42329,-0.1604 -4.59946,-1.1314 -6.3125,-2.625 a 2.0002,2.0002 0 0 0 -0.65625,-0.375 2.0002,2.0002 0 0 0 -0.375,-0.6562 c -1.49882,-1.7094 -2.46474,-3.9002 -2.625,-6.3125 a 2.0002,2.0002 0 0 0 -0.1875,-0.7188 2.0002,2.0002 0 0 0 0.1875,-0.7187 c 0.16043,-2.4233 1.12403,-4.6008 2.625,-6.3125 a 2.0002,2.0002 0 0 0 0.375,-0.6563 2.0002,2.0002 0 0 0 0.65625,-0.375 c 1.71177,-1.501 3.88921,-2.4646 6.3125,-2.625 a 2.0002,2.0002 0 0 0 0.71875,-0.1875 z" fill-opacity="1" fill-rule="evenodd" stroke="none" marker="none" visibility="visible" display="inline" overflow="visible"></path><path d="m 76.558377,1017.6275 c -4.16225,0 -7.5625,3.4003 -7.5625,7.5625 0,4.1623 3.40458,7.5625 7.5625,7.5625 4.15792,0 7.5625,-3.4046 7.5625,-7.5625 0,-4.1579 -3.40025,-7.5625 -7.5625,-7.5625 z m 0,4 c 1.99775,0 3.5625,1.5604 3.5625,3.5625 0,2.0021 -1.56042,3.5625 -3.5625,3.5625 -2.00208,0 -3.5625,-1.5647 -3.5625,-3.5625 0,-1.9977 1.56475,-3.5625 3.5625,-3.5625 z" fill-opacity="1" fill-rule="evenodd" stroke="none" marker="none" visibility="visible" display="inline" overflow="visible"></path></g></svg></svg> <defs><filter id="colors9740272678"><feColorMatrix type="matrix" values="0 0 0 0 0.99609375  0 0 0 0 0.99609375  0 0 0 0 0.99609375  0 0 0 1 0" class="icon-fecolormatrix"></feColorMatrix></filter> <filter id="colorsf3083961379"><feColorMatrix type="matrix" values="0 0 0 0 0.99609375  0 0 0 0 0.99609375  0 0 0 0 0.99609375  0 0 0 1 0" class="icon-fecolormatrix"></feColorMatrix></filter> <filter id="colorsb6742675431"><feColorMatrix type="matrix" values="0 0 0 0 0  0 0 0 0 0  0 0 0 0 0  0 0 0 1 0" class="icon-fecolormatrix"></feColorMatrix></filter></defs></g></g> <g transform="translate(67,5.722894668579102)"><g data-gra="path-name" fill-rule="" class="tp-name iconsvg-namesvg" opacity="1" transform="matrix(1,0,0,1,0,0)"><g transform="scale(1)"><g><path d="M23.53-33.37L23.53 0 11.95 0 11.95-33.37 1.49-33.37 1.49-42.83 33.96-42.83 33.96-33.37 23.53-33.37ZM80.16-21.47L80.16-21.47Q80.16-10.66 74.85-5.04 69.55 0.59 59.33 0.59L59.33 0.59Q49.25 0.59 43.87-5.07 38.5-10.72 38.5-21.53L38.5-21.53Q38.5-32.23 43.84-37.87 49.19-43.51 59.38-43.51L59.38-43.51Q69.61-43.51 74.88-37.91 80.16-32.31 80.16-21.47ZM50.68-21.47L50.68-21.47Q50.68-9.05 59.33-9.05L59.33-9.05Q63.72-9.05 65.84-12.07 67.97-15.09 67.97-21.47L67.97-21.47Q67.97-27.89 65.82-30.95 63.66-34.01 59.38-34.01L59.38-34.01Q50.68-34.01 50.68-21.47ZM127.97-21.47L127.97-21.47Q127.97-10.66 122.67-5.04 117.36 0.59 107.14 0.59L107.14 0.59Q97.06 0.59 91.68-5.07 86.31-10.72 86.31-21.53L86.31-21.53Q86.31-32.23 91.66-37.87 97-43.51 107.2-43.51L107.2-43.51Q117.42-43.51 122.7-37.91 127.97-32.31 127.97-21.47ZM98.5-21.47L98.5-21.47Q98.5-9.05 107.14-9.05L107.14-9.05Q111.53-9.05 113.66-12.07 115.78-15.09 115.78-21.47L115.78-21.47Q115.78-27.89 113.63-30.95 111.47-34.01 107.2-34.01L107.2-34.01Q98.5-34.01 98.5-21.47ZM163.77 0L135.7 0 135.7-42.83 147.28-42.83 147.28-9.35 163.77-9.35 163.77 0ZM198.63-13.01L198.63-13.01Q198.63-9.02 196.61-5.93 194.59-2.84 190.78-1.13 186.97 0.59 181.85 0.59L181.85 0.59Q177.57 0.59 174.67-0.01 171.77-0.62 168.63-2.11L168.63-2.11 168.63-12.42Q171.94-10.72 175.52-9.77 179.09-8.82 182.08-8.82L182.08-8.82Q184.66-8.82 185.86-9.71 187.06-10.61 187.06-12.01L187.06-12.01Q187.06-12.89 186.58-13.55 186.09-14.21 185.02-14.88 183.96-15.56 179.33-17.64L179.33-17.64Q175.14-19.54 173.04-21.33 170.95-23.12 169.94-25.43 168.93-27.74 168.93-30.91L168.93-30.91Q168.93-36.83 173.23-40.14 177.54-43.45 185.07-43.45L185.07-43.45Q191.72-43.45 198.63-40.37L198.63-40.37 195.09-31.44Q189.08-34.19 184.72-34.19L184.72-34.19Q182.46-34.19 181.44-33.4 180.41-32.61 180.41-31.44L180.41-31.44Q180.41-30.18 181.71-29.18 183.02-28.18 188.79-25.55L188.79-25.55Q194.33-23.06 196.48-20.2 198.63-17.34 198.63-13.01Z" transform="translate(-1.4900000095367432, 43.5099983215332)"></path></g> <!----> <!----> <!----> <!----> <!----> <!----> <!----></g></g> <!----></g></g><defs v-gra="od"></defs></svg>