<svg width="198" height="55" xmlns="http://www.w3.org/2000/svg" preserveAspectRatio="xMidYMid meet">

 <g>
  <title>background</title>
  <rect fill="none" id="canvas_background" height="57" width="200" y="-1" x="-1"/>
 </g>
 <g>
  <title>Layer 1</title>
  <g id="svg_7" class="icon-text-wrapper icon-svg-group iconsvg" fill="#333">
   <g id="svg_8" class="iconsvg-imagesvg">
    <g id="svg_9">
     <rect id="svg_10" class="image-rect" height="54.664225" width="60" y="-0.332115" x="1.574997" stroke-width="2" fill-opacity="0" fill="#333"/>
     <svg id="svg_11" class="image-svg-svg primary" height="54.664225" width="60" y="-0.332115" x="1.574997">
      <svg id="svg_12" viewBox="-0.0641925185918808 -0.006150266155600548 68.47882843017578 62.38897705078125">
       <defs>
        <linearGradient x1="0.000937" y2="0.499866" x2="0.999786" y1="0.499866" id="svg_3">
         <stop stop-color="#22bbfe" offset="0"/>
         <stop stop-color="#812eff" offset="0.48"/>
         <stop stop-color="#f95595" offset="0.99"/>
        </linearGradient>
       </defs>
       <path id="svg_13" fill="url(#svg_3)" d="m54.61,60.6a14.24,14.24 0 0 1 -7.91,-2.33c-3.62,-2.09 -7.28,-4.13 -10.86,-6.3a2.73,2.73 0 0 0 -3.23,0c-5.58,3.3 -11.24,6.47 -16.82,9.76a3.39,3.39 0 0 1 -4,0c-3.34,-2.07 -6.79,-3.96 -10.16,-5.88c-1.45,-0.81 -1.48,-1.38 0,-2.19c2.8,-1.49 5.49,-3.11 8.21,-4.66c0.82,-0.48 1.87,-0.78 1.91,-2s-1.09,-1.7 -2,-2.21c-2.46,-1.45 -4.93,-2.9 -7.46,-4.23a3.88,3.88 0 0 1 -2.33,-4c0.13,-6.9 0,-13.8 0.06,-20.71c0,-11.18 11.29,-17.7 21,-12.16q5.9,3.31 11.66,6.73a2.82,2.82 0 0 0 3.28,0c5.64,-3.32 11.35,-6.54 17.04,-9.87a3,3 0 0 1 3.48,0c3.4,2.05 6.83,4.06 10.3,6c1.6,0.89 1.22,1.45 -0.12,2.15c-2.75,1.5 -5.45,3.12 -8.17,4.67c-2.49,1.45 -2.49,2.63 0.03,4.16s5.14,3.1 7.79,4.48a3.36,3.36 0 0 1 2.09,3.43c-0.09,7.18 0,14.36 -0.05,21.55a13.58,13.58 0 0 1 -13.74,13.61zm-0.12,-28.73c0,-4.24 0.05,-8.49 0,-12.73c0,-2.21 -1.09,-2.81 -2.93,-1.76c-3,1.69 -5.88,3.46 -8.86,5.12a2.72,2.72 0 0 0 -1.53,2.7q0.06,5.94 0,11.9a2.7,2.7 0 0 0 1.51,2.7q5.1,2.85 10.12,5.85c1.39,0.83 1.76,0.49 1.74,-1c-0.09,-4.29 -0.05,-8.53 -0.05,-12.78zm-40.55,-1.62l0,12.75c0,2.3 1.13,2.94 3.07,1.85c2.86,-1.6 5.66,-3.29 8.51,-4.9a3.11,3.11 0 0 0 1.74,-3c-0.05,-3.9 0,-7.81 0,-11.71a2.71,2.71 0 0 0 -1.55,-2.68q-5,-2.79 -9.95,-5.74c-1.53,-0.93 -1.89,-0.44 -1.87,1.15c0.11,4.03 0.05,8.18 0.05,12.28z"/>
      </svg>
     </svg>
     <!---->
    </g>
   </g>
   <g id="svg_14">
    <g id="svg_15" class="tp-name iconsvg-namesvg">
     <g id="svg_16" transform="translate(72.57499694824219,97.66788482666016) scale(1) ">
      <g id="svg_17">
       <path id="svg_18" d="m16.25,-76.48517l-5.88,0l-0.98,-3.73l-6.47,0l-1.01,3.73l-5.91,0l6.5,-19.99l7.17,0l6.58,19.99zm-12.21,-8.14l4.23,0l-0.86,-3.27q-0.3,-1.09 -0.73,-2.82q-0.42,-1.73 -0.56,-2.48l0,0q-0.12,0.69 -0.48,2.29q-0.36,1.59 -1.6,6.28l0,0zm28.16,8.14l-5.12,0l-4.07,-14.34l-0.12,0q0.28,3.66 0.28,5.69l0,0l0,8.65l-4.77,0l0,-19.91l7.17,0l4.15,14.14l0.11,0l4.07,-14.14l7.18,0l0,19.91l-4.94,0l0,-8.73q0,-0.68 0.02,-1.51q0.02,-0.83 0.18,-4.07l0,0l-0.12,0l-4.02,14.31zm31.27,0l-5.88,0l-0.98,-3.73l-6.47,0l-1.01,3.73l-5.91,0l6.5,-19.99l7.17,0l6.58,19.99zm-12.21,-8.14l4.23,0l-0.86,-3.27q-0.3,-1.09 -0.73,-2.82q-0.42,-1.73 -0.56,-2.48l0,0q-0.12,0.69 -0.48,2.29q-0.37,1.59 -1.6,6.28l0,0zm28.56,3.8l0,4.34l-15.52,0l0,-3.32l8.62,-12.25l-8.41,0l0,-4.34l15.09,0l0,3.31l-8.62,12.26l8.84,0zm21.47,-5.64l0,0q0,5.02 -2.46,7.64q-2.47,2.61 -7.22,2.61l0,0q-4.68,0 -7.18,-2.63q-2.5,-2.62 -2.5,-7.65l0,0q0,-4.97 2.48,-7.59q2.49,-2.63 7.23,-2.63l0,0q4.75,0 7.2,2.61q2.45,2.6 2.45,7.64zm-13.7,0l0,0q0,5.77 4.02,5.77l0,0q2.04,0 3.03,-1.4q0.99,-1.4 0.99,-4.37l0,0q0,-2.99 -1,-4.41q-1,-1.42 -2.99,-1.42l0,0q-4.05,0 -4.05,5.83zm36.26,-9.93l0,19.91l-7.06,0l-7.27,-14.03l-0.12,0q0.26,3.31 0.26,5.05l0,0l0,8.98l-4.77,0l0,-19.91l7.03,0l7.24,13.84l0.08,0q-0.19,-3.01 -0.19,-4.84l0,0l0,-9l4.8,0z"/>
      </g>
      <!---->
      <!---->
      <!---->
      <!---->
      <!---->
      <!---->
      <g id="svg_19" fill="#333">
       <g id="svg_20" transform="translate(67,1.284830093383789) scale(1.0008599758148193) ">
        <path id="svg_21" d="m-56.668993,-67.865983l0,21.62l-7.49,0l0,-21.62l-6.78,0l0,-6.13l21.03,0l0,6.13l-6.76,0zm36.7,7.7l0,0q0,7.01 -3.44,10.65q-3.43,3.65 -10.06,3.65l0,0q-6.53,0 -10.01,-3.66q-3.49,-3.67 -3.49,-10.67l0,0q0,-6.93 3.47,-10.59q3.46,-3.65 10.07,-3.65l0,0q6.63,0 10.04,3.63q3.42,3.62 3.42,10.64zm-19.1,0l0,0q0,8.05 5.6,8.05l0,0q2.85,0 4.23,-1.95q1.37,-1.96 1.37,-6.1l0,0q0,-4.15 -1.39,-6.14q-1.4,-1.98 -4.17,-1.98l0,0q-5.64,0 -5.64,8.12zm50.08,0l0,0q0,7.01 -3.44,10.65q-3.43,3.65 -10.06,3.65l0,0q-6.53,0 -10.01,-3.66q-3.48,-3.67 -3.48,-10.67l0,0q0,-6.93 3.46,-10.59q3.46,-3.65 10.07,-3.65l0,0q6.63,0 10.04,3.63q3.42,3.62 3.42,10.64zm-19.1,0l0,0q0,8.05 5.6,8.05l0,0q2.85,0 4.23,-1.95q1.37,-1.96 1.37,-6.1l0,0q0,-4.15 -1.39,-6.14q-1.4,-1.98 -4.17,-1.98l0,0q-5.64,0 -5.64,8.12zm42.3,13.92l-18.19,0l0,-27.75l7.5,0l0,21.69l10.69,0l0,6.06zm22.59,-8.43l0,0q0,2.58 -1.31,4.59q-1.31,2 -3.78,3.11q-2.47,1.11 -5.79,1.11l0,0q-2.77,0 -4.65,-0.39q-1.88,-0.39 -3.91,-1.36l0,0l0,-6.68q2.15,1.1 4.46,1.72q2.32,0.62 4.25,0.62l0,0q1.67,0 2.45,-0.58q0.78,-0.58 0.78,-1.49l0,0q0,-0.57 -0.31,-1q-0.32,-0.43 -1.01,-0.86q-0.69,-0.44 -3.69,-1.79l0,0q-2.72,-1.23 -4.07,-2.39q-1.36,-1.16 -2.02,-2.66q-0.65,-1.5 -0.65,-3.55l0,0q0,-3.83 2.79,-5.98q2.79,-2.14 7.67,-2.14l0,0q4.31,0 8.79,1.99l0,0l-2.3,5.79q-3.89,-1.78 -6.72,-1.78l0,0q-1.46,0 -2.12,0.51q-0.67,0.51 -0.67,1.27l0,0q0,0.82 0.85,1.46q0.84,0.65 4.58,2.36l0,0q3.59,1.61 4.98,3.46q1.4,1.85 1.4,4.66z"/>
       </g>
      </g>
     </g>
    </g>
    <!---->
   </g>
  </g>
 </g>
</svg>