<svg width="270" height="67" xmlns="http://www.w3.org/2000/svg" preserveAspectRatio="xMidYMid meet">

 <g>
  <title>background</title>
  <rect fill="none" id="canvas_background" height="69" width="272" y="-1" x="-1"/>
 </g>
 <g>
  <title>Layer 1</title>
  <rect id="svg_3" class="background" fill-opacity="0" fill="#ffffff" height="250" width="340" y="1" x="1"/>
  <rect id="svg_4" class="watermarklayer" fill="url(#watermark)" height="250" width="340" y="1" x="1"/>
  <g id="svg_5" class="icon-text-wrapper icon-svg-group iconsvg" fill="#FFFFFF">
   <g id="svg_6" class="iconsvg-imagesvg">
    <g id="svg_7">
     <rect id="svg_8" class="image-rect" height="55.545784" width="60" y="3.227104" x="2.929993" stroke-width="2" fill-opacity="0" fill="#FFFFFF"/>
     <svg id="svg_9" class="image-svg-svg primary" height="55.545784" width="60" y="3.227104" x="2.929993" filter="url(#colors7670046579)">
      <svg id="svg_10" viewBox="6.00412654876709 9.27001953125 87.99176025390625 81.4598388671875" y="0px" x="0px">
       <g id="svg_11">
        <path id="svg_12" fill-rule="evenodd" d="m40.07182,9.270167a2.0002,2.0002 0 0 0 -0.53719,0.0684l-4.46,1.2a2.0002,2.0002 0 0 0 -1.4125,2.44875l1.43906,5.3725c-5.97181,2.39086 -11.34585,6.39873 -15.4025,11.81812l-4.81437,-2.78a2.0002,2.0002 0 0 0 -2.73094,0.73l-2.31,3.99a2.0002,2.0002 0 0 0 0.73062,2.73407l4.815,2.78062c-2.66069,6.21953 -3.43949,12.87949 -2.52874,19.24569l-5.37376,1.4397a2.0002,2.0002 0 0 0 -1.41374,2.4515l1.2,4.46a2.0002,2.0002 0 0 0 2.44906,1.4122l5.37187,-1.439c2.39036,5.9724 6.39657,11.3524 11.81,15.404l-2.77281,4.815a2.0002,2.0002 0 0 0 0.73125,2.7291l3.99,2.31a2.0002,2.0002 0 0 0 2.73406,-0.7306l2.78031,-4.8147c5.68035,2.4231 11.60322,3.1794 17.45313,2.605a2.0002,2.0002 0 1 0 -0.39094,-3.981c-5.78283,0.5679 -11.4972,-0.2938 -17.00375,-2.9953a2.0002,2.0002 0 0 0 -2.61281,0.7957l-2.68875,4.6562l-0.53031,-0.3072l2.68437,-4.6609a2.0002,2.0002 0 0 0 -0.61968,-2.6594c-5.99731,-4.0202 -10.23719,-9.7847 -12.43063,-16.2144a2.0002,2.0002 0 0 0 -2.41063,-1.2862l-5.2,1.3931l-0.16062,-0.5975l5.19594,-1.3919a2.0002,2.0002 0 0 0 1.445,-2.3172c-1.30881,-6.6664 -0.52012,-13.77548 2.66281,-20.26376a2.0002,2.0002 0 0 0 -0.79531,-2.61282l-4.65625,-2.68875l0.30593,-0.52812l4.66,2.69094a2.0002,2.0002 0 0 0 2.66094,-0.61782c4.03154,-6.00962 9.78588,-10.24832 16.215,-12.44156a2.0002,2.0002 0 0 0 1.28625,-2.41031l-1.39312,-5.20031l0.59719,-0.16063l1.39187,5.19594a2.0002,2.0002 0 0 0 2.31719,1.445c6.66643,-1.30881 13.77444,-0.51975 20.26187,2.67219a2.0002,2.0002 0 0 0 2.615,-0.79438l2.69063,-4.65937l0.52625,0.30343l-2.68219,4.6575a2.0002,2.0002 0 0 0 0.61906,2.65907c5.09153,3.41631 8.68779,7.93289 11.09282,13.23531a2.0002,2.0002 0 1 0 3.64281,-1.65219c-2.43116,-5.36003 -6.04263,-10.11336 -10.98125,-13.82094l2.77312,-4.815a2.0002,2.0002 0 0 0 -0.73437,-2.73093l-3.99,-2.3a2.0002,2.0002 0 0 0 -2.73094,0.73281l-2.77969,4.81344c-6.22017,-2.66837 -12.88072,-3.44822 -19.24687,-2.5375l-1.43938,-5.37344a2.0002,2.0002 0 0 0 -1.91437,-1.48219l0,0.00004z"/>
        <path id="svg_13" fill-rule="evenodd" d="m48.98307,27.622977c-1.01155,-0.008 -2.03473,0.0478 -3.065,0.17094c-0.0005,0.0001 -0.001,0.0003 -0.0016,0.0003c-13.19327,1.56839 -22.65593,13.58843 -21.08843,26.7816a2.0002,2.0002 0 0 0 0.0003,0c1.57819,13.2024 13.59929,22.6562 26.79188,21.0887a2.0002,2.0002 0 1 0 -0.47219,-3.9722c-11.047,1.3125 -21.02539,-6.533 -22.34781,-17.59c-1.31244,-11.04632 6.5441,-21.02541 17.59,-22.33779a2.0002,2.0002 0 0 0 0.0016,-0.0003c11.04567,-1.32148 21.02493,6.53458 22.34656,17.58159a2.0002,2.0002 0 1 0 3.97156,-0.475c-1.45505,-12.16235 -11.78455,-21.1552 -23.72686,-21.24941l-0.00001,0.00157z"/>
        <path id="svg_14" fill-rule="evenodd" d="m75.49588,55.390317a2.0002,2.0002 0 0 0 -1.78125,2l0,1c-1.9389,0.3819 -3.76128,1.156 -5.34375,2.2188l-0.6875,-0.7188a2.0002,2.0002 0 0 0 -2.84375,0l-1.21875,1.2188a2.0002,2.0002 0 0 0 0,2.8125l0.71875,0.7187c-1.06266,1.5824 -1.83688,3.405 -2.21875,5.3438l-1,0a2.0002,2.0002 0 0 0 -2,2l0,1.7187a2.0002,2.0002 0 0 0 2,2l1,0c0.38188,1.9358 1.15574,3.7287 2.21875,5.3125l-0.71875,0.7188a2.0002,2.0002 0 0 0 0,2.8125l1.21875,1.2187a2.0002,2.0002 0 0 0 2.84375,0l0.6875,-0.7187c1.58139,1.0576 3.40542,1.8373 5.34375,2.2187l0,1a2.0002,2.0002 0 0 0 2,2l1.71875,0a2.0002,2.0002 0 0 0 2,-2l0,-1c1.93525,-0.3814 3.72976,-1.1608 5.3125,-2.2187l0.71875,0.7187a2.0002,2.0002 0 0 0 2.8125,0l1.21875,-1.2187a2.0002,2.0002 0 0 0 0,-2.8125l-0.6875,-0.7188c1.05803,-1.5828 1.80605,-3.3771 2.1875,-5.3125l1,0a2.0002,2.0002 0 0 0 2,-2l0,-1.7187a2.0002,2.0002 0 0 0 -2,-2l-1,0c-0.38145,-1.9382 -1.12988,-3.7625 -2.1875,-5.3438l0.6875,-0.7187a2.0002,2.0002 0 0 0 0,-2.8125l-1.21875,-1.2188a2.0002,2.0002 0 0 0 -2.8125,0l-0.71875,0.7188c-1.58382,-1.0631 -3.37667,-1.8369 -5.3125,-2.2188l0,-1a2.0002,2.0002 0 0 0 -2,-2l-1.71875,0a2.0002,2.0002 0 0 0 -0.21875,0zm1.0625,6.5625a2.0002,2.0002 0 0 0 0.71875,0.1875c2.41234,0.1603 4.63442,1.1262 6.34375,2.625a2.0002,2.0002 0 0 0 0.625,0.375a2.0002,2.0002 0 0 0 0.40625,0.6563c1.49363,1.713 2.43333,3.8892 2.59375,6.3125a2.0002,2.0002 0 0 0 0.1875,0.7187a2.0002,2.0002 0 0 0 -0.1875,0.7188c-0.16026,2.4123 -1.10225,4.6331 -2.59375,6.3437a2.0002,2.0002 0 0 0 -0.40625,0.625a2.0002,2.0002 0 0 0 -0.625,0.375c-1.71059,1.4915 -3.93141,2.4648 -6.34375,2.625a2.0002,2.0002 0 0 0 -0.71875,0.1875a2.0002,2.0002 0 0 0 -0.71875,-0.1875c-2.42329,-0.1604 -4.59946,-1.1314 -6.3125,-2.625a2.0002,2.0002 0 0 0 -0.65625,-0.375a2.0002,2.0002 0 0 0 -0.375,-0.6562c-1.49882,-1.7094 -2.46474,-3.9002 -2.625,-6.3125a2.0002,2.0002 0 0 0 -0.1875,-0.7188a2.0002,2.0002 0 0 0 0.1875,-0.7187c0.16043,-2.4233 1.12403,-4.6008 2.625,-6.3125a2.0002,2.0002 0 0 0 0.375,-0.6563a2.0002,2.0002 0 0 0 0.65625,-0.375c1.71177,-1.501 3.88921,-2.4646 6.3125,-2.625a2.0002,2.0002 0 0 0 0.71875,-0.1875z"/>
        <path id="svg_15" fill-rule="evenodd" d="m76.55838,65.265317c-4.16225,0 -7.5625,3.4003 -7.5625,7.5625c0,4.1623 3.40458,7.5625 7.5625,7.5625c4.15792,0 7.5625,-3.4046 7.5625,-7.5625c0,-4.1579 -3.40025,-7.5625 -7.5625,-7.5625zm0,4c1.99775,0 3.5625,1.5604 3.5625,3.5625c0,2.0021 -1.56042,3.5625 -3.5625,3.5625c-2.00208,0 -3.5625,-1.5647 -3.5625,-3.5625c0,-1.9977 1.56475,-3.5625 3.5625,-3.5625z"/>
       </g>
      </svg>
     </svg>
     <defs transform="translate(1,1) translate(-36,-95) translate(37.92999267578125,97.22710418701172) ">
      <filter id="colors7670046579"/>
     </defs>
    </g>
   </g>
   <g id="svg_16">
    <g id="svg_17" class="tp-name iconsvg-namesvg">
     <g id="svg_18" transform="translate(37.92999267578125,97.22710418701172) scale(1) ">
      <g id="svg_19">
       <path id="svg_20" d="m54.110007,-78.137107l0,33.37l-11.58,0l0,-33.37l-10.46,0l0,-9.46l32.47,0l0,9.46l-10.43,0zm56.63,11.9l0,0q0,10.81 -5.31,16.43q-5.3,5.63 -15.52,5.63l0,0q-10.08,0 -15.46,-5.66q-5.37,-5.65 -5.37,-16.46l0,0q0,-10.7 5.34,-16.34q5.35,-5.64 15.54,-5.64l0,0q10.23,0 15.5,5.6q5.28,5.6 5.28,16.44zm-29.48,0l0,0q0,12.42 8.65,12.42l0,0q4.39,0 6.51,-3.02q2.13,-3.02 2.13,-9.4l0,0q0,-6.42 -2.15,-9.48q-2.16,-3.06 -6.44,-3.06l0,0q-8.7,0 -8.7,12.54zm77.29,0l0,0q0,10.81 -5.3,16.43q-5.31,5.63 -15.53,5.63l0,0q-10.08,0 -15.46,-5.66q-5.37,-5.65 -5.37,-16.46l0,0q0,-10.7 5.35,-16.34q5.34,-5.64 15.54,-5.64l0,0q10.22,0 15.5,5.6q5.27,5.6 5.27,16.44zm-29.47,0l0,0q0,12.42 8.64,12.42l0,0q4.39,0 6.52,-3.02q2.12,-3.02 2.12,-9.4l0,0q0,-6.42 -2.15,-9.48q-2.16,-3.06 -6.43,-3.06l0,0q-8.7,0 -8.7,12.54zm65.27,21.47l-28.07,0l0,-42.83l11.58,0l0,33.48l16.49,0l0,9.35zm34.86,-13.01l0,0q0,3.99 -2.02,7.08q-2.02,3.09 -5.83,4.8q-3.81,1.72 -8.93,1.72l0,0q-4.28,0 -7.18,-0.6q-2.9,-0.61 -6.04,-2.1l0,0l0,-10.31q3.31,1.7 6.89,2.65q3.57,0.95 6.56,0.95l0,0q2.58,0 3.78,-0.89q1.2,-0.9 1.2,-2.3l0,0q0,-0.88 -0.48,-1.54q-0.49,-0.66 -1.56,-1.33q-1.06,-0.68 -5.69,-2.76l0,0q-4.19,-1.9 -6.29,-3.69q-2.09,-1.79 -3.1,-4.1q-1.01,-2.31 -1.01,-5.48l0,0q0,-5.92 4.3,-9.23q4.31,-3.31 11.84,-3.31l0,0q6.65,0 13.56,3.08l0,0l-3.54,8.93q-6.01,-2.75 -10.37,-2.75l0,0q-2.26,0 -3.28,0.79q-1.03,0.79 -1.03,1.96l0,0q0,1.26 1.3,2.26q1.31,1 7.08,3.63l0,0q5.54,2.49 7.69,5.35q2.15,2.86 2.15,7.19z"/>
      </g>
      <!---->
      <!---->
      <!---->
      <!---->
      <!---->
      <!---->
      <!---->
     </g>
    </g>
    <!---->
   </g>
  </g>
 </g>
</svg>