<svg width="432" height="142.904" viewBox="0 0 370 122.394"><g transform="matrix(1.21949 0 0 1.21949 -10.973 .02)" fill="#a0e4b0"><path xmlns="http://www.w3.org/2000/svg" d="m43.17 34.1-.46.1a38.72 38.72 0 0 0-5.34 1.43 19.56 19.56 0 0 0-8.88 6.75c-4.3 5.75-5.21 11.92-2.7 18.34a15.28 15.28 0 0 0 7.62 8.59 19.11 19.11 0 0 0 8.37 1.94 20.55 20.55 0 0 0 3.94-.39 22 22 0 0 0 9.65-4.1c1-.76 1.88-1.58 2.77-2.38l.42-.38a46.3 46.3 0 0 0 5 5.8 3.1 3.1 0 0 0 4.16.2l8-6.71a2.25 2.25 0 0 0 .68-1 3.15 3.15 0 0 0-.44-2.78c-.22-.31-.43-.63-.65-1-.39-.59-.8-1.2-1.24-1.78a9.92 9.92 0 0 1-1.8-4.42 12.78 12.78 0 0 1-.27-2.38V27.67a18.41 18.41 0 0 0-.83-6 15 15 0 0 0-5.51-7.76 27.43 27.43 0 0 0-28.86-1.52A19.62 19.62 0 0 0 26.59 26a2.9 2.9 0 0 0 2.71 3.6l5.55.49c1.09.1 2.19.2 3.28.28a3 3 0 0 0 3.29-2.11 7.52 7.52 0 0 1 6.64-6 7.15 7.15 0 0 1 4.4.48 5.35 5.35 0 0 1 3.3 5.1v4.84a63.14 63.14 0 0 0-12.59 1.42zM53.36 21a8.18 8.18 0 0 0-3.72-.83 12.6 12.6 0 0 0-1.88.15 9.45 9.45 0 0 0-8.27 7.48 1.1 1.1 0 0 1-1.2.63L35 28.1l-5.55-.49a1.09 1.09 0 0 1-.79-.38 1 1 0 0 1-.13-.82 17.47 17.47 0 0 1 9.21-12.27 25.42 25.42 0 0 1 26.76 1.39 12.92 12.92 0 0 1 4.76 6.77 16.11 16.11 0 0 1 .74 5.36v22.27a14.94 14.94 0 0 0 .25 2.74A11.86 11.86 0 0 0 72.44 58c.41.53.78 1.09 1.17 1.67l.67 1a1.14 1.14 0 0 1 .16 1.06s0 .07-.06.09q-4 3.36-7.95 6.7a1.08 1.08 0 0 1-1.43-.15 43.1 43.1 0 0 1-5.21-6.14l-.25-.23-.83.57.79-.62a1 1 0 0 0-1.45-.14l-1.25 1.08c-.9.81-1.76 1.58-2.66 2.29a20.21 20.21 0 0 1-8.81 3.72 17 17 0 0 1-11-1.39A13.13 13.13 0 0 1 27.65 60c-2.23-5.73-1.41-11.25 2.44-16.41a17.58 17.58 0 0 1 8-6.08 37.43 37.43 0 0 1 5.07-1.35l.45-.1a61.29 61.29 0 0 1 12.77-1.38h.45a1 1 0 0 0 .92-.94v-5.91A7.36 7.36 0 0 0 53.36 21z"/><path xmlns="http://www.w3.org/2000/svg" d="M57.72 44V41.53a1 1 0 0 0-.92-1h-.14a2.43 2.43 0 0 0-.36 0l-1.72.09c-1.5.08-3 .16-4.51.26a11 11 0 0 0-5.18 1.7 10.77 10.77 0 0 0-4.77 5.62 11.88 11.88 0 0 0-.22 6.75 7 7 0 0 0 3.54 5 10 10 0 0 0 2.51.95 8.75 8.75 0 0 0 1.8.19 6.72 6.72 0 0 0 4.49-1.65 15.29 15.29 0 0 0 3.41-3.9 13.3 13.3 0 0 0 2.08-7.28c-.03-1.46-.02-2.88-.01-4.26zm-3.78 10.45a13.6 13.6 0 0 1-3 3.4 5.08 5.08 0 0 1-4.6 1 8.4 8.4 0 0 1-2-.77 5 5 0 0 1-2.5-3.65 10 10 0 0 1 .16-5.61 8.75 8.75 0 0 1 4-4.57 9 9 0 0 1 4.25-1.4c1.49-.1 3-.17 4.48-.25l1-.05V48.25a11.18 11.18 0 0 1-1.79 6.2zM76.32 75.24c-.3.11-.59.25-.88.39l-.48.22-2.23 1c-1.25.54-2.49 1.07-3.73 1.62a45.3 45.3 0 0 1-6 2l-.62.18-2.38.65c-.43.11-.86.2-1.29.29l-.63.13-.93.22c-.69.16-1.35.31-2 .41s-1.41.13-2.15.17H51.57c-.53 0-1.06.07-1.58.08-1.56 0-3.32 0-5-.05-.84 0-1.7-.1-2.54-.18l-1.3-.12a14.5 14.5 0 0 1-1.54-.17c-1-.17-2-.37-3-.56L35 81.29a26.9 26.9 0 0 1-4.88-1.4c-1.35-.53-2.7-1.09-4-1.65-1.12-.47-2.12-.9-3.12-1.38-1.24-.6-2.45-1.24-3.47-1.79s-2-1.09-2.94-1.66c-.64-.37-1.28-.76-1.9-1.16-1-.66-2-1.33-2.95-2a1.66 1.66 0 0 0-2.29.25 1.69 1.69 0 0 0 0 2.3c.88 1 1.68 1.85 2.44 2.64.27.28.57.55.87.82l.66.61a41.88 41.88 0 0 0 5.4 4.49C20 82.2 21 82.87 22 83.45c1.4.86 2.77 1.68 4.19 2.41 1.19.6 2.43 1.12 3.62 1.62l.65.28a29 29 0 0 0 2.72 1l1.21.38a20.39 20.39 0 0 0 4.29 1c.8.07 1.59.19 2.38.31s1.66.26 2.51.34a22.06 22.06 0 0 0 2.29 0h.51a1.09 1.09 0 0 0 .44.1h.06l1.57-.08c1.21-.06 2.46-.12 3.7-.24a44.23 44.23 0 0 0 4.37-.57c1.54-.32 3-.68 4.41-1.08.92-.26 1.81-.61 2.68-.94l1-.36c.78-.3 1.58-.6 2.36-1 1.23-.61 2.41-1.28 3.49-1.92s2-1.25 3-1.88a24 24 0 0 0 2.18-1.7c1-.87 2-1.79 2.89-2.64a2 2 0 0 0 .17-2.48 2.22 2.22 0 0 0-2.37-.76zm-2.07 4.33a20.31 20.31 0 0 1-2 1.56c-.87.61-1.8 1.2-2.84 1.8s-2.2 1.28-3.41 1.86a21.57 21.57 0 0 1-2.18.9l-1 .38c-.86.33-1.67.64-2.51.88-1.34.38-2.78.73-4.27 1a41.67 41.67 0 0 1-4.17.7c-1.18.12-2.4.18-3.58.23l-1.08.12a.9.9 0 0 0-.4-.09h-1a19.58 19.58 0 0 1-2 0c-.8-.08-1.62-.2-2.41-.32s-1.65-.25-2.48-.33a19.13 19.13 0 0 1-3.88-1l-1.24-.4a26.15 26.15 0 0 1-2.52-1l-.65-.28c-1.17-.49-2.37-1-3.49-1.57-1.36-.69-2.7-1.49-4.06-2.32-.93-.57-1.9-1.21-3.05-2a39.43 39.43 0 0 1-5.15-4.26c-.24-.24-.49-.46-.73-.69s-.53-.47-.78-.72l-.74-.78 1 .65c.66.43 1.32.83 2 1.22 1 .58 2 1.15 3 1.69s2.28 1.22 3.55 1.83c1 .5 2.06.94 3.2 1.42 1.35.57 2.71 1.13 4.07 1.67a29.48 29.48 0 0 0 5.24 1.5l1.62.32c1 .19 2 .39 3 .56.59.1 1.17.15 1.73.2l1.27.11c.87.08 1.77.16 2.67.19 1.76.06 3.55.05 5.12.05.57 0 1.14-.05 1.71-.09H53.2c.75 0 1.54-.07 2.32-.18s1.48-.28 2.19-.45l.9-.21.6-.12c.47-.1.93-.2 1.39-.32.8-.2 1.6-.43 2.4-.66l.63-.17a48.85 48.85 0 0 0 6.25-2.14l3.72-1.61 2.23-1 .56-.26.59-.28c-.92.78-1.81 1.62-2.73 2.41z"/><path xmlns="http://www.w3.org/2000/svg" d="M88 65.91a20 20 0 0 0-3.28-.27 25.08 25.08 0 0 0-5.43.63A21.39 21.39 0 0 0 72.84 69a1.7 1.7 0 0 0-.66.89.67.67 0 0 1-.06.12 1 1 0 0 0 .64 1.45h.14a1.94 1.94 0 0 0 .93.14q.51-.08 1-.18a9.46 9.46 0 0 1 1.17-.17c1.09-.1 2.18-.16 3.32-.23l1.39-.08.91.08 2.37.2a1.34 1.34 0 0 1 .92.64 1.14 1.14 0 0 1 .2 1 14.2 14.2 0 0 0-.43 1.57c-.09.37-.18.73-.29 1.09-.52 1.68-1 3.24-1.55 4.75-.13.4-.3.78-.46 1.16s-.29.68-.42 1a1.84 1.84 0 0 0 0 1 1 1 0 0 0 1 .93h.19a1.83 1.83 0 0 0 .82-.15 3.11 3.11 0 0 0 1-.72l.75-.86A26.27 26.27 0 0 0 87.74 80a24.08 24.08 0 0 0 2.08-4 14.18 14.18 0 0 0 .79-3 22.83 22.83 0 0 0 .39-3.56 3.55 3.55 0 0 0-3-3.53zm.66 6.72a12.58 12.58 0 0 1-.66 2.62 21.88 21.88 0 0 1-1.9 3.62 18.16 18.16 0 0 1-1.23 1.58c.47-1.4.94-2.83 1.42-4.37.12-.4.22-.81.31-1.22s.23-.93.38-1.36a3.13 3.13 0 0 0-.41-2.72 3.3 3.3 0 0 0-2.44-1.56L81.75 69l-1-.08h-.15l-1.44.08-2.38.14a18.28 18.28 0 0 1 2.94-1 23.06 23.06 0 0 1 5-.58 16.73 16.73 0 0 1 2.92.24A1.56 1.56 0 0 1 89 69.41a22.5 22.5 0 0 1-.36 3.22z"/></g><path d="M143.865 62.778c0 4.232-.118 11.286 6.348 11.286 3.175 0 5.173-1.293 7.407-2.94v14.343c-2.704 1.529-5.996 2.94-9.523 2.94-14.93 0-21.631-6.349-21.631-25.629V43.733H120V29.39h6.466V12.697h17.399V29.39h13.755v14.343h-13.755v19.045zm52.008-19.868c-7.172 0-13.167 6.348-13.167 15.636 0 9.17 5.995 15.518 13.167 15.518 7.288 0 13.284-6.348 13.284-15.518 0-9.288-5.996-15.636-13.284-15.636zm0-14.342c17.046 0 30.683 12.814 30.683 29.978s-13.637 29.86-30.683 29.86c-16.93 0-30.566-12.696-30.566-29.86s13.637-29.978 30.566-29.978zm65.174 14.342c-7.171 0-13.167 6.348-13.167 15.636 0 9.17 5.996 15.518 13.167 15.518 7.289 0 13.285-6.348 13.285-15.518 0-9.288-5.996-15.636-13.285-15.636zm0-14.342c17.047 0 30.684 12.814 30.684 29.978s-13.637 29.86-30.684 29.86c-16.929 0-30.566-12.696-30.566-29.86s13.637-29.978 30.566-29.978zM315.406 0v87.466h-17.517V0h17.517zm25.204 47.73c0 6.936 29.39 3.644 29.39 21.984 0 11.991-10.58 18.692-23.747 18.692-8.347 0-16.694-4.114-23.278-10.698l11.404-11.403c3.292 3.997 7.994 7.054 11.874 7.406s7.17-1.293 7.759-3.056c1.41-4.468-6.701-4.703-9.17-5.408-9.288-2.822-20.103-6.701-20.103-18.222 0-13.755 14.342-18.457 21.514-18.457 8.229 0 16.576 3.761 23.277 10.58l-11.286 11.286c-3.057-3.997-8.347-7.171-11.991-7.171-1.881 0-5.643.705-5.643 4.467z" fill="#111"/><path d="M128.816 118.053h-5.484l-1.428 3.98H120l5.14-13.671h2.095l4.95 13.67h-2.018zm-4.913-1.637h4.246l-2.018-6.017h-.038zm26.192 5.616h-1.79v-8.072c0-.4.038-2.133.038-3.409h-.038l-3.846 11.481h-1.828l-3.846-11.462h-.038c0 1.257.038 2.99.038 3.39v8.072h-1.79v-13.67h2.647l3.903 11.557h.038l3.884-11.557h2.628v13.67zm13.625-3.979h-5.484l-1.428 3.98h-1.904l5.14-13.671h2.095l4.95 13.67h-2.018zm-4.913-1.637h4.246l-2.018-6.017h-.038zm22.898 3.979v1.637h-10.758v-1.542l8.378-10.49h-7.75v-1.638h10.13v1.6l-8.416 10.433h8.416zm15.776-5.198c0-3.218-1.79-5.56-4.76-5.56s-4.76 2.342-4.76 5.56 1.79 5.56 4.76 5.56 4.76-2.342 4.76-5.56zm1.904 0c0 2.951-1.56 7.197-6.664 7.197s-6.664-4.246-6.664-7.197S187.62 108 192.721 108s6.664 4.246 6.664 7.197zm14.425 4.208v-11.043h1.79v13.67h-2.076l-6.95-11.043h-.037v11.043h-1.79v-13.67h2.19l6.835 11.043h.038zm25.327-5.388v-5.655h1.847v13.67h-1.847v-6.378h-7.14v6.378h-1.847v-13.67h1.847v5.655h7.14zm18.195 6.378v1.637H247.24v-13.67h9.957v1.637h-8.11v4.189h7.482v1.637h-7.483v4.57h8.245zm7.437-12.033v12.033h6.93v1.637h-8.777v-13.67h1.847zm13.948 1.58v4.741h3.675c1.657 0 2.78-.61 2.78-2.456 0-1.733-1.18-2.285-2.704-2.285h-3.75zm0 6.321v5.77h-1.846v-13.671h6.15c2.532 0 4.055 1.637 4.055 3.846 0 1.904-1.085 4.055-4.055 4.055h-4.304zm24.117 4.132v1.637h-10.092v-13.67h9.958v1.637h-8.11v4.189h7.482v1.637h-7.483v4.57h8.245zm7.665-4.227v5.864h-1.847v-13.67h6.321c2.247 0 4.494.78 4.494 3.674 0 2.019-1.028 2.761-1.904 3.275.78.324 1.561.667 1.637 2.57l.115 2.476c.019.762.114 1.047.685 1.37v.305h-2.266c-.266-.837-.323-2.913-.323-3.427 0-1.123-.229-2.437-2.438-2.437H310.5zm0-6.226v4.646h4.284c1.352 0 2.78-.343 2.78-2.361 0-2.114-1.542-2.285-2.456-2.285h-4.608z" fill="#a0e4b0"/></svg>
